<svg id="Layer_1" height="512" viewBox="0 0 512 512" width="512" xmlns="http://www.w3.org/2000/svg" data-name="Layer 1"><path d="m381.35 255.69h45.21v66.79h-45.21z" fill="#4a5160"/><path d="m418.9 109.807a6 6 0 0 1 -6-6v-29.022a10.2 10.2 0 0 0 -3.009-7.264l-16.632-16.639a6 6 0 1 1 8.486-8.484l16.633 16.638a22.122 22.122 0 0 1 6.522 15.749v29.022a6 6 0 0 1 -6 6z" fill="#b0b5ca"/><path d="m391.364 422.248a36.993 36.993 0 0 1 -14.335-2.864l4.627-11.072a25.214 25.214 0 0 0 34.9-23.258v-174.778h12v174.778a37.237 37.237 0 0 1 -37.192 37.194z" fill="#56568c"/><path d="m405.38 200.44h36.02v19.22h-36.02z" fill="#7e788e"/><path d="m460.28 133.62-15.07-3.42-6.33-25.2h-41.88v28h14c5.99 0 11 4.5 11 10.49v19.42a11.189 11.189 0 0 1 -11 11.09h-14v27h56v-15.62l15.28-9.94z" fill="#978cac"/><path d="m131.3 255.69v66.79h-2.65-43.21v-66.79h43.21z" fill="#4a5160"/><path d="m93.1 109.807a6 6 0 0 1 -6-6v-29.022a22.122 22.122 0 0 1 6.525-15.75l16.63-16.635a6 6 0 1 1 8.486 8.484l-16.633 16.636a10.2 10.2 0 0 0 -3.01 7.265v29.022a6 6 0 0 1 -5.998 6z" fill="#b0b5ca"/><path d="m120.636 422.248a37.237 37.237 0 0 1 -37.195-37.194v-174.778h12v174.778a25.214 25.214 0 0 0 34.9 23.258l4.627 11.072a36.993 36.993 0 0 1 -14.332 2.864z" fill="#56568c"/><path d="m70.6 200.44h36.02v19.22h-36.02z" fill="#7e788e"/><path d="m73.12 105-6.33 25.2-15.07 3.517-8 41.774 15.28 9.889v15.62h56v-27h-14a11.189 11.189 0 0 1 -11-11.09v-19.42c0-5.99 5.01-10.49 11-10.49h14v-28z" fill="#978cac"/><path d="m341.05 21h-169.46a42.549 42.549 0 0 0 -42.59 42.29v381.71h254v-381.635a42.067 42.067 0 0 0 -41.95-42.365z" fill="#7d8696"/><path d="m201.59 21h-30a42.549 42.549 0 0 0 -42.59 42.29v381.71h30v-381.71a42.549 42.549 0 0 1 42.59-42.29z" fill="#59616b"/><path d="m341.98 74.36v86.82h-171.32v-86.82a12 12 0 0 1 12-12h147.32a12 12 0 0 1 12 12z" fill="#a5e2fb"/><path d="m212.66 62h-30c-6.63 0-11.66 5.73-11.66 12.36v86.64h30v-86.64c0-6.63 5.03-12.36 11.66-12.36z" fill="#86b5c4"/><path d="m129 159h254v42h-254z" fill="#5fcda4"/><path d="m239 337.67c-.11-.01-.21-.03-.31-.04-23.86-3.34-52.69-19.09-56.55-54.53l-4.64-36.91c35.77 1.56 63.72 37.89 62.43 81.12l-.32 10.44c-.21-.03-.41-.05-.61-.08z" fill="#5fcda4"/><path d="m258.07 347.93-.27-.02a179.094 179.094 0 0 1 4.34-25.76c3.95-15.42 14.08-27.36 26.9-31.88l45.46-16.02c-1.84 43.2-25.47 80.02-68.07 74.19z" fill="#4ca987"/><path d="m129.3 444.41h254.42a27.2 27.2 0 0 1 27.2 27.2v18.39h-309.2v-18.39a27.2 27.2 0 0 1 27.2-27.2z" fill="#5fcda4"/><path d="m129 159h30v42h-30z" fill="#4c9e7d"/><path d="m158.92 444h-30c-15.02 0-26.92 12.59-26.92 27.61v18.39h30v-18.39c0-15.02 11.9-27.61 26.92-27.61z" fill="#4c9e7d"/><path d="m150.907 357.865a6 6 0 0 1 -6-6v-94.8a6 6 0 0 1 12 0v94.8a6 6 0 0 1 -6 6z" fill="#f4f8fc"/><path d="m248.488 369.335a6 6 0 0 1 -5.476-8.445 71.5 71.5 0 0 1 16.844-23.517l34.044-31.131a6 6 0 1 1 8.1 8.858l-34.045 31.132a59.435 59.435 0 0 0 -13.983 19.548 6 6 0 0 1 -5.484 3.555z" fill="#9b796a"/><path d="m150.907 243.865a6 6 0 0 1 -6-6v-6.8a6 6 0 0 1 12 0v6.8a6 6 0 0 1 -6 6z" fill="#f4f8fc"/><path d="m255.5 425h-.069a6 6 0 0 1 -5.932-6.068 213.216 213.216 0 0 0 -3.919-40.842 155.767 155.767 0 0 0 -24.816-60.255l-17.131-24.619a6 6 0 1 1 9.849-6.854l17.131 24.618a167.863 167.863 0 0 1 26.765 64.92 225.274 225.274 0 0 1 4.12 43.164 6 6 0 0 1 -5.998 5.936z" fill="#c79a83"/></svg>