<?xml version="1.0" encoding="iso-8859-1"?>
<!-- Generator: Adobe Illustrator 19.0.0, SVG Export Plug-In . SVG Version: 6.00 Build 0)  -->
<svg version="1.1" id="Capa_1" xmlns="http://www.w3.org/2000/svg" xmlns:xlink="http://www.w3.org/1999/xlink" x="0px" y="0px"
	 viewBox="0 0 480.042 480.042" style="enable-background:new 0 0 480.042 480.042;" xml:space="preserve">
<circle style="fill:#808080;" cx="240.032" cy="240.042" r="232"/>
<circle style="fill:#D6D6D6;" cx="240.032" cy="240.042" r="160"/>
<g>
	<path style="fill:#314963;" d="M147.232,216.042c2.4-8.8,6.4-17.6,11.2-25.6l-46.4-46.4c-16,20.8-26.4,45.6-30.4,72H147.232z"/>
	<path style="fill:#314963;" d="M216.032,147.242v-64.8c-26.4,4-50.4,14.4-72,30.4l45.6,45.6
		C198.432,152.842,207.232,149.642,216.032,147.242z"/>
	<path style="fill:#314963;" d="M216.032,332.842c-8.8-2.4-17.6-6.4-25.6-11.2l-46.4,46.4c20.8,16,45.6,26.4,72,30.4V332.842z"/>
	<path style="fill:#314963;" d="M158.432,289.642c-4.8-8-8.8-16.8-11.2-25.6h-64.8c4,26.4,14.4,50.4,30.4,72L158.432,289.642z"/>
</g>
<path style="fill:#FCC436;" d="M304.032,136.042c-38.4,0-74.4,21.6-92,56h84l48,48l-48,48h-84c26.4,51.2,88.8,70.4,140,44
	c19.2-9.6,34.4-25.6,44-44h76v-96h-76C378.432,157.642,342.432,136.042,304.032,136.042z"/>
<circle style="fill:#808080;" cx="240.032" cy="240.042" r="16"/>
<path d="M240.032,480.042c91.2,0,175.2-51.2,215.2-133.6l-14.4-7.2c-17.6,36-44.8,67.2-79.2,88.8l-11.2-16.8l-13.6,8.8l10.4,16
	c-30.4,16.8-64.8,26.4-100,27.2v-16h-16v16c-35.2-1.6-69.6-10.4-100-27.2l10.4-16l-13.6-8.8l-11.2,16.8
	c-26.4-17.6-48.8-40-66.4-66.4l16.8-11.2l-8.8-13.6l-16,10.4c-15.2-29.6-24.8-64-26.4-99.2h24v-16h-24c1.6-35.2,10.4-69.6,27.2-100
	l16,10.4l8.8-13.6l-16.8-11.2c17.6-26.4,40-48.8,66.4-66.4l11.2,16.8l13.6-8.8l-10.4-16c30.4-16,64.8-25.6,100-27.2v16h16v-16
	c35.2,0.8,69.6,10.4,100,27.2l-10.4,16l13.6,8.8l11.2-16.8c33.6,21.6,60.8,52.8,79.2,88.8l14.4-7.2
	c-59.2-118.4-203.2-166.4-322.4-108s-167.2,202.4-108.8,321.6C65.632,428.042,148.832,480.042,240.032,480.042z"/>
<path d="M472.032,184.042h-71.2c-31.2-53.6-99.2-72-152.8-40.8c-18.4,10.4-33.6,26.4-43.2,45.6c-2.4,4-0.8,8.8,3.2,10.4
	c0.8,0.8,2.4,0.8,4,0.8h80.8l40,40l-40,40h-80.8c-4.8,0-8,3.2-8,8c0,1.6,0,2.4,0.8,4c28.8,55.2,96,76,151.2,48
	c19.2-9.6,34.4-24.8,45.6-43.2h70.4c4.8,0,8-3.2,8-8v-96.8C480.032,187.242,476.832,184.042,472.032,184.042z M464.032,280.042h-68
	c-3.2,0-5.6,1.6-7.2,4c-24.8,47.2-82.4,65.6-129.6,40.8c-13.6-7.2-24.8-16.8-33.6-29.6h70.4c2.4,0,4-0.8,5.6-2.4l48-48
	c3.2-3.2,3.2-8,0-11.2l-48-48c-1.6-0.8-3.2-1.6-5.6-1.6h-69.6c31.2-43.2,90.4-52.8,133.6-22.4c12,8.8,22.4,20,29.6,33.6
	c1.6,2.4,4,4,7.2,4h67.2V280.042z"/>
<path d="M264.032,240.042c0-13.6-10.4-24-24-24s-24,10.4-24,24s10.4,24,24,24S264.032,253.642,264.032,240.042z M232.032,240.042
	c0-4.8,3.2-8,8-8c4.8,0,8,3.2,8,8c0,4.8-3.2,8-8,8S232.032,244.842,232.032,240.042z"/>
<path d="M143.232,122.442l40.8,40.8c2.4,2.4,6.4,3.2,9.6,0.8c7.2-4.8,15.2-8,24-10.4c3.2-0.8,5.6-4,6.4-8v-58.4
	c5.6-0.8,10.4-0.8,16-0.8c32.8,0,64.8,10.4,91.2,30.4l9.6-12.8c-74.4-56-179.2-40.8-235.2,33.6s-40.8,179.2,33.6,235.2
	c28.8,23.2,64.8,35.2,100.8,35.2s72-12,100.8-33.6l-9.6-12.8c-26.4,20-58.4,30.4-91.2,30.4c-5.6,0-10.4,0-16-0.8v-58.4
	c0-4-2.4-7.2-6.4-8c-8-2.4-16-5.6-24-10.4c-3.2-1.6-7.2-1.6-9.6,0.8l-40.8,40.8c-7.2-6.4-14.4-12.8-20.8-20.8l40.8-40.8
	c2.4-2.4,3.2-6.4,0.8-9.6c-4.8-7.2-8-15.2-10.4-24c-0.8-3.2-4-5.6-8-6.4h-58.4c-0.8-10.4-0.8-21.6,0-32h58.4c4,0,7.2-2.4,8-6.4
	c2.4-8,5.6-16,10.4-24c1.6-3.2,1.6-7.2-0.8-9.6l-40.8-40.8C128.832,136.042,136.032,128.842,143.232,122.442z M208.032,140.842
	c-5.6,1.6-11.2,4-16.8,7.2l-35.2-35.2c16-10.4,32.8-17.6,51.2-21.6v49.6H208.032z M191.232,332.042c5.6,3.2,11.2,4.8,16.8,7.2v49.6
	c-18.4-4-36-11.2-51.2-21.6L191.232,332.042z M140.832,272.042c1.6,5.6,4,11.2,7.2,16.8l-35.2,35.2c-10.4-16-17.6-32.8-21.6-51.2
	h49.6V272.042z M148.032,191.242c-3.2,5.6-4.8,11.2-7.2,16.8h-49.6c4-18.4,11.2-36,21.6-51.2L148.032,191.242z"/>
<g>
</g>
<g>
</g>
<g>
</g>
<g>
</g>
<g>
</g>
<g>
</g>
<g>
</g>
<g>
</g>
<g>
</g>
<g>
</g>
<g>
</g>
<g>
</g>
<g>
</g>
<g>
</g>
<g>
</g>
</svg>
